P1
221 30
00000000000000000000000000000000000000000000000000000000000000000000000000000000000000000000000000000000000000000000000000000000000000000000000000000000000000000000000000000000000000000000000000000000000000000000000000000
00000000000000000000000000000000000000000000000000000000000000000000000000000000000000000000000000000000000000000000000000000000000000000000000000000000000000000000000000000000000000000000000000000000000000000000000000000
00000000000000000000000000000000000000000000000000000000000000000000000000000000000000000000000000000000000000000000000000000000000000000000000000000000000000000000000000000000000000000000000000000000000000000000000000000
00000000000000000000000000000000000000000000000000000000000000000000000000000000000000000000000000000000000000000000000000000000000000000000000000000000000000000000000000000000000000000000000000000000000000000000000000000
00000000000000000000000000000000000000000000000000000000000000000000000000000000000000000000000000000000000000000000000000000000000000000000000000000000000000000000000000000000000000000000000000000000000000000000000000000
00000000000000000000000000000000000000000000000000000000000000000000000000000000000000000000000000000000000000000000000000000000000000000000000000000000000000000000000000000000000000000000000000000000000000000000000000000
00000000000000000000000000000000000000000000000000000000000000000000000000000000000000000000000000000000000000000000000000000000000000000000000000000000000000000000000000000000000000000000000000000000000000000000000000000
00000000000000000000000000000000000000000000000000000000000000000000000000000000000000000000000000000000000000000000000000000000000000000000000000000000000000000000000000000000000000000000000000000000000000000000000000000
00000000000000000000000000000000000000000000000000000000000000000000000000000000000000000000000000000000000000000000000000000000000000000000000000000000000000000000000000000000000000000000000000000000000000000000000000000
00000000000000000000000000000000000000000000000000000000000000000000000000000000000000000000000000000000000000000000000000000000000000000000000000000000000000000000000000000000000000000000000000000000000000000000000000000
00000000001110001110000001111110000001110000001110000001111110001111111111110001110001110000000001111110001110001110001110000001111111110001110001110000000000001110000000001110000001111111110000001110001110001110000000000
00000000001110001110000001111110000001110000001110000001111110001111111111110001110001110000000001111110001110001110001110000001111111110001110001110000000000001110000000001110000001111111110000001110001110001110000000000
00000000001110001110000001111110000001110000001110000001111110001111111111110001110001110000000001111110001110001110001110000001111111110001110001110000000000001110000000001110000001111111110000001110001110001110000000000
00000000001110001110000001111110000001110000001110000001111110001111111111110001110001110000000001111110001110001110001110000001111111110001110001110000000000001110000000001110000001111111110000001110001110001110000000000
00000000001110001110000001111110000001110000001110000001111110001111111111110001110001110000000001111110001110001110001110000001111111110001110001110000000000001110000000001110000001111111110000001110001110001110000000000
00000000001110001110000001111110000001110000001110000001111110001111111111110001110001110000000001111110001110001110001110000001111111110001110001110000000000001110000000001110000001111111110000001110001110001110000000000
00000000001110001110000001111110000001110000001110000001111110001111111111110001110001110000000001111110001110001110001110000001111111110001110001110000000000001110000000001110000001111111110000001110001110001110000000000
00000000001110001110000001111110000001110000001110000001111110001111111111110001110001110000000001111110001110001110001110000001111111110001110001110000000000001110000000001110000001111111110000001110001110001110000000000
00000000001110001110000001111110000001110000001110000001111110001111111111110001110001110000000001111110001110001110001110000001111111110001110001110000000000001110000000001110000001111111110000001110001110001110000000000
00000000001110001110000001111110000001110000001110000001111110001111111111110001110001110000000001111110001110001110001110000001111111110001110001110000000000001110000000001110000001111111110000001110001110001110000000000
00000000000000000000000000000000000000000000000000000000000000000000000000000000000000000000000000000000000000000000000000000000000000000000000000000000000000000000000000000000000000000000000000000000000000000000000000000
00000000000000000000000000000000000000000000000000000000000000000000000000000000000000000000000000000000000000000000000000000000000000000000000000000000000000000000000000000000000000000000000000000000000000000000000000000
00000000000000000000000000000000000000000000000000000000000000000000000000000000000000000000000000000000000000000000000000000000000000000000000000000000000000000000000000000000000000000000000000000000000000000000000000000
00000000000000000000000000000000000000000000000000000000000000000000000000000000000000000000000000000000000000000000000000000000000000000000000000000000000000000000000000000000000000000000000000000000000000000000000000000
00000000000000000000000000000000000000000000000000000000000000000000000000000000000000000000000000000000000000000000000000000000000000000000000000000000000000000000000000000000000000000000000000000000000000000000000000000
00000000000000000000000000000000000000000000000000000000000000000000000000000000000000000000000000000000000000000000000000000000000000000000000000000000000000000000000000000000000000000000000000000000000000000000000000000
00000000000000000000000000000000000000000000000000000000000000000000000000000000000000000000000000000000000000000000000000000000000000000000000000000000000000000000000000000000000000000000000000000000000000000000000000000
00000000000000000000000000000000000000000000000000000000000000000000000000000000000000000000000000000000000000000000000000000000000000000000000000000000000000000000000000000000000000000000000000000000000000000000000000000
00000000000000000000000000000000000000000000000000000000000000000000000000000000000000000000000000000000000000000000000000000000000000000000000000000000000000000000000000000000000000000000000000000000000000000000000000000
00000000000000000000000000000000000000000000000000000000000000000000000000000000000000000000000000000000000000000000000000000000000000000000000000000000000000000000000000000000000000000000000000000000000000000000000000000
